<svg width="61" height="61" viewBox="0 0 61 61" fill="none" xmlns="http://www.w3.org/2000/svg">
<path d="M40.2898 29.576C43.0287 29.576 45.2485 27.3553 45.2485 24.6173V5.77436C45.2485 3.03643 43.0287 0.815678 40.2898 0.815678H21.4468C18.7089 0.815678 16.4882 3.03643 16.4882 5.77436V24.6173C16.4882 27.3553 18.7089 29.576 21.4468 29.576H40.2898ZM19.4634 24.6173V5.77436C19.4634 4.68051 20.3528 3.79088 21.4468 3.79088H40.2898C41.3842 3.79088 42.2733 4.68051 42.2733 5.77436V24.6173C42.2733 25.7114 41.3842 26.6008 40.2898 26.6008H21.4468C20.3528 26.6008 19.4634 25.7114 19.4634 24.6173Z" fill="#fff"/>
<path d="M0.620361 36.5182V55.3611C0.620361 58.0991 2.84111 60.3198 5.57904 60.3198H24.422C27.1605 60.3198 29.3807 58.0991 29.3807 55.3611V36.5182C29.3807 33.7802 27.1605 31.5595 24.422 31.5595H5.57904C2.83964 31.5595 0.620361 33.7802 0.620361 36.5182ZM26.4055 36.5182V55.3611C26.4055 56.4555 25.516 57.3446 24.422 57.3446H5.57904C4.48519 57.3446 3.59557 56.4555 3.59557 55.3611V36.5182C3.59557 35.4238 4.48519 34.5345 5.57904 34.5345H24.422C25.516 34.5347 26.4055 35.4239 26.4055 36.5182Z" fill="#fff"/>
<path d="M60.6203 36.5182C60.6203 33.7802 58.4005 31.5595 55.6616 31.5595H36.8187C34.0809 31.5595 31.86 33.7802 31.86 36.5182V55.3611C31.86 58.0991 34.0809 60.3198 36.8187 60.3198H55.6616C58.4005 60.3198 60.6203 58.0991 60.6203 55.3611V36.5182ZM57.6451 55.3611C57.6451 56.4555 56.756 57.3446 55.6616 57.3446H36.8187C35.7243 57.3446 34.8352 56.4555 34.8352 55.3611V36.5182C34.8352 35.4238 35.7243 34.5345 36.8187 34.5345H55.6616C56.756 34.5345 57.6451 35.4238 57.6451 36.5182V55.3611Z" fill="#fff"/>
<path d="M22.8226 23.9501C23.0347 24.0552 23.261 24.1055 23.4841 24.1055C24.0303 24.1055 24.5572 23.8034 24.8167 23.2792L26.1664 20.567H35.5704L36.9196 23.2792C37.1802 23.8017 37.706 24.1055 38.2522 24.1055C38.4761 24.1055 38.7016 24.0552 38.9146 23.9501C39.6507 23.5839 39.9501 22.6906 39.5839 21.9554L32.2002 7.11228C32.1943 7.10016 32.1857 7.09043 32.1798 7.0783C32.1547 7.03092 32.1256 6.98831 32.0946 6.9446C32.0694 6.90677 32.0461 6.8671 32.0162 6.83221C31.9861 6.79676 31.9521 6.76481 31.9203 6.73193C31.8836 6.69557 31.8487 6.65792 31.8081 6.62486C31.7761 6.59915 31.7412 6.57729 31.7073 6.55452C31.6608 6.52165 31.6132 6.49006 31.562 6.46214C31.5504 6.45627 31.5427 6.44855 31.531 6.44304C31.504 6.42964 31.4748 6.42376 31.4469 6.41164C31.3965 6.38978 31.3446 6.36903 31.2933 6.35305C31.2483 6.34001 31.2028 6.33138 31.1581 6.3211C31.1097 6.31136 31.061 6.30255 31.0125 6.2974C30.9649 6.29263 30.917 6.29263 30.8687 6.29263C30.8211 6.29263 30.7725 6.29263 30.7249 6.2974C30.6764 6.30255 30.6276 6.31136 30.5791 6.3211C30.5335 6.33028 30.4891 6.33909 30.4454 6.35213C30.3927 6.36811 30.3409 6.38886 30.2885 6.41164C30.2619 6.42357 30.2329 6.42964 30.2063 6.44212C30.1951 6.44745 30.1873 6.45516 30.1767 6.46104C30.1238 6.48914 30.0755 6.52256 30.0266 6.55562C29.9941 6.5784 29.9603 6.59805 29.9299 6.62284C29.8882 6.65682 29.8514 6.69557 29.8136 6.73377C29.7817 6.76572 29.7502 6.79584 29.7212 6.8311C29.6917 6.86784 29.6671 6.90769 29.6412 6.94644C29.6121 6.98886 29.5826 7.03166 29.558 7.07812C29.5517 7.09024 29.5429 7.09998 29.5372 7.1121L22.1534 21.9553C21.7868 22.6904 22.0865 23.5839 22.8226 23.9501ZM30.8683 11.1147L34.0895 17.592H27.6461L30.8683 11.1147Z" fill="#fff"/>
<path d="M11.446 55.2276H15.2164C18.424 55.2276 21.0332 52.6184 21.0332 49.4107C21.0332 47.1872 19.7775 45.2541 17.9397 44.2739C18.5261 43.4798 18.884 42.5073 18.884 41.4449C18.884 38.8019 16.734 36.6519 14.091 36.6519H11.446C10.3415 36.6519 9.41424 37.383 9.0945 38.3824C9.01406 38.5655 8.96667 38.7688 8.96667 38.9821V39.1312V43.7595V46.0733V52.7483V52.8335C8.96667 52.9518 8.98375 53.066 9.0102 53.1753C9.21461 54.3385 10.2264 55.2276 11.446 55.2276ZM18.058 49.4107C18.058 50.9778 16.7834 52.2524 15.2164 52.2524H11.9419V46.5694H15.2164C16.7834 46.5692 18.058 47.8436 18.058 49.4107ZM15.909 41.4449C15.909 42.4473 15.0939 43.2627 14.0912 43.2627H11.9419V39.626H14.091C15.0939 39.6271 15.909 40.4425 15.909 41.4449Z" fill="#fff"/>
<path d="M51.4429 50.232C50.3448 51.2664 48.9094 51.8357 47.4005 51.8357C44.1502 51.8357 41.5061 49.1898 41.5061 45.9396C41.5061 42.6893 44.15 40.0436 47.4005 40.0436C48.8444 40.0436 50.2323 40.5712 51.3121 41.5283C51.9272 42.0735 52.8686 42.0182 53.4128 41.4032C53.9581 40.7892 53.9009 39.8478 53.2868 39.3035C51.6626 37.8623 49.5735 37.0702 47.4012 37.0702C42.5103 37.0702 38.5309 41.0487 38.5309 45.9406C38.5309 50.8326 42.5103 54.8111 47.4012 54.8111C49.6714 54.8111 51.8321 53.9549 53.4844 52.3975C54.0818 51.8339 54.1099 50.8924 53.5463 50.2939C52.9827 49.6974 52.0414 49.6684 51.4429 50.232Z" fill="#fff"/>
</svg>
