<svg width="60" height="60" viewBox="0 0 60 60" fill="none" xmlns="http://www.w3.org/2000/svg">
<path fill-rule="evenodd" clip-rule="evenodd" d="M39.3854 17.4344L43.6317 11.2268C39.7056 11.4607 34.9574 12.3828 30.4015 13.7007C27.3057 14.5964 23.8581 14.4612 20.6529 13.8699C19.6434 13.6836 18.6489 13.4504 17.686 13.1851L20.5702 17.4312C26.4596 19.6052 33.495 19.6063 39.3854 17.4344ZM19.1019 19.5456C25.8777 22.2356 34.0937 22.2347 40.8687 19.5431C43.6234 22.4009 46.4688 25.9571 48.6611 29.677C50.9531 33.5658 52.3999 37.4119 52.495 40.7154C52.585 43.8418 51.4866 46.5351 48.3926 48.6031C45.1137 50.7946 39.4003 52.4055 30.03 52.4961C20.6571 52.5867 14.9349 51.085 11.6467 48.9591C8.55219 46.9585 7.4325 44.2941 7.50306 41.1503C7.57766 37.8268 9.00774 33.9254 11.2948 29.9544C13.4781 26.1634 16.3242 22.5129 19.1019 19.5456ZM17.0775 10.3994C18.3616 10.8036 19.722 11.1559 21.1065 11.4113C24.1036 11.9643 27.1234 12.0466 29.7067 11.2992C32.9899 10.3494 36.4365 9.5798 39.6662 9.12387C36.9102 8.21656 33.5783 7.5 30.0541 7.5C24.9679 7.5 20.246 8.99243 17.0775 10.3994ZM14.6836 8.76539C18.0647 7.07182 23.7811 5 30.0541 5C36.2109 5 41.7884 6.99579 45.1549 8.67091C45.2115 8.69905 45.2674 8.72709 45.3226 8.75504C46.2297 9.21348 46.967 9.64463 47.5 10L42.3695 17.5C54.1967 29.5909 68.3126 54.6262 30.0541 54.996C-8.20445 55.3657 5.66467 30.0532 17.5947 17.5L12.5 10C12.8565 9.7657 13.3025 9.49848 13.8277 9.21219C14.0932 9.06753 14.3789 8.91799 14.6836 8.76539Z" fill="#fff"/>
<path d="M27.8609 26.25H32.1391V28.25H36.4174V32.25H27.8609L27.6684 32.266C27.4218 32.3077 27.1986 32.4291 27.038 32.609C26.8774 32.7888 26.7893 33.0158 26.7893 33.25C26.7893 33.4843 26.8774 33.7113 27.038 33.891C27.1986 34.0709 27.4218 34.1922 27.6684 34.234L27.8609 34.25H32.1391L32.4899 34.26C33.8774 34.3421 35.1761 34.9261 36.1109 35.8882C37.0455 36.8504 37.5428 38.115 37.4971 39.4141C37.4515 40.7132 36.8666 41.9446 35.8665 42.8473C34.8661 43.7501 33.5294 44.2533 32.1391 44.25V46.25H27.8609V44.25H23.5826V40.25H32.1391L32.3316 40.234C32.5783 40.1922 32.8014 40.0709 32.962 39.891C33.1226 39.7112 33.2108 39.4842 33.2108 39.25C33.2108 39.0157 33.1226 38.7887 32.962 38.609C32.8014 38.4291 32.5783 38.3078 32.3316 38.266L32.1391 38.25H27.8609L27.5101 38.24C26.1226 38.1579 24.8239 37.5739 23.8891 36.6118C22.9545 35.6496 22.4573 34.385 22.5029 33.0859C22.5485 31.7868 23.1334 30.5554 24.1335 29.6528C25.1339 28.7499 26.4706 28.2468 27.8609 28.25V26.25Z" fill="#fff"/>
</svg>
