<svg width="60" height="60" viewBox="0 0 60 60" fill="none" xmlns="http://www.w3.org/2000/svg">
<path d="M25.752 49.2012H13.3066C12.8672 49.2012 12.5156 48.8496 12.5156 48.4102V13.0371C12.5156 12.5977 12.8672 12.2461 13.3066 12.2461H25.752C26.1914 12.2461 26.543 12.5977 26.543 13.0371V48.4102C26.5371 48.8496 26.1855 49.2012 25.752 49.2012ZM14.0977 47.6191H24.9609V13.8281H14.0977V47.6191Z" fill="white"/>
<path d="M25.5234 58.6523H13.5293C12.9727 58.6523 12.5156 58.1953 12.5156 57.6387V48.4102C12.5156 47.9707 12.8672 47.6191 13.3066 47.6191H25.752C26.1914 47.6191 26.543 47.9707 26.543 48.4102V57.6387C26.5371 58.2012 26.0859 58.6523 25.5234 58.6523ZM14.0977 57.0762H24.9609V49.2012H14.0977V57.0762Z" fill="white"/>
<path d="M25.752 13.8281H13.3067C13.0137 13.8281 12.75 13.6699 12.6094 13.4121C12.4688 13.1543 12.4863 12.8438 12.6445 12.6035L18.2461 4.04883C18.3926 3.82617 18.6387 3.69141 18.9082 3.69141H20.1504C20.4199 3.69141 20.666 3.82617 20.8125 4.04883L26.4141 12.6035C26.5723 12.8438 26.584 13.1543 26.4492 13.4121C26.3086 13.6699 26.0391 13.8281 25.752 13.8281ZM14.7656 12.2461H24.2871L19.7227 5.27344H19.336L14.7656 12.2461Z" fill="white"/>
<path d="M21.5742 7.58203H17.4726C17.1972 7.58203 16.9453 7.44141 16.7988 7.20703C16.6523 6.97266 16.6406 6.67969 16.7695 6.43359L18.6152 2.79492C18.75 2.53125 19.0254 2.36133 19.3183 2.36133H19.7285C20.0273 2.36133 20.2968 2.53125 20.4316 2.79492L22.2773 6.43359C22.4004 6.67969 22.3886 6.97266 22.248 7.20703C22.1074 7.44141 21.8496 7.58203 21.5742 7.58203ZM18.7675 6H20.291L19.5293 4.5L18.7675 6Z" fill="white"/>
<path d="M12.9258 46.9453H26.127V49.875H12.9258V46.9453Z" fill="white"/>
<path d="M26.127 50.666H12.9258C12.4863 50.666 12.1348 50.3145 12.1348 49.875V46.9453C12.1348 46.5059 12.4863 46.1543 12.9258 46.1543H26.127C26.5664 46.1543 26.918 46.5059 26.918 46.9453V49.875C26.918 50.3145 26.5664 50.666 26.127 50.666ZM13.7168 49.0898H25.3359V47.7363H13.7168V49.0898Z" fill="white"/>
<path d="M17.4785 33.2695C17.0391 33.2695 16.6875 32.918 16.6875 32.4785V13.0371C16.6875 12.5977 17.0391 12.2461 17.4785 12.2461C17.918 12.2461 18.2695 12.5977 18.2695 13.0371V32.4785C18.2695 32.918 17.9121 33.2695 17.4785 33.2695Z" fill="white"/>
<path d="M17.4785 47.7363C17.0391 47.7363 16.6875 47.3848 16.6875 46.9453V37.2246C16.6875 36.7852 17.0391 36.4336 17.4785 36.4336C17.918 36.4336 18.2695 36.7852 18.2695 37.2246V46.9453C18.2695 47.3848 17.9121 47.7363 17.4785 47.7363Z" fill="white"/>
<path d="M44.4551 58.6523H35.7832C34.0898 58.6523 32.7188 57.2754 32.7188 55.5879V3.80273C32.7188 2.10938 34.0957 0.738281 35.7832 0.738281H44.4551C46.1484 0.738281 47.5195 2.11523 47.5195 3.80273V55.5938C47.5195 57.2812 46.1426 58.6523 44.4551 58.6523ZM35.7832 2.31445C34.9629 2.31445 34.3008 2.98242 34.3008 3.79688V55.5879C34.3008 56.4082 34.9687 57.0703 35.7832 57.0703H44.4551C45.2754 57.0703 45.9375 56.4023 45.9375 55.5879V3.80273C45.9375 2.98242 45.2695 2.32031 44.4551 2.32031H35.7832V2.31445Z" fill="white"/>
<path d="M38.6426 6.9082H33.5098C33.0703 6.9082 32.7188 6.55664 32.7188 6.11719C32.7188 5.67773 33.0703 5.32617 33.5098 5.32617H38.6426C39.082 5.32617 39.4336 5.67773 39.4336 6.11719C39.4336 6.55664 39.0762 6.9082 38.6426 6.9082Z" fill="white"/>
<path d="M38.6426 15.2285H33.5098C33.0703 15.2285 32.7188 14.877 32.7188 14.4375C32.7188 13.998 33.0703 13.6465 33.5098 13.6465H38.6426C39.082 13.6465 39.4336 13.998 39.4336 14.4375C39.4336 14.877 39.0762 15.2285 38.6426 15.2285Z" fill="white"/>
<path d="M38.6426 23.5488H33.5098C33.0703 23.5488 32.7188 23.1973 32.7188 22.7578C32.7188 22.3184 33.0703 21.9668 33.5098 21.9668H38.6426C39.082 21.9668 39.4336 22.3184 39.4336 22.7578C39.4336 23.1973 39.0762 23.5488 38.6426 23.5488Z" fill="white"/>
<path d="M38.6426 31.875H33.5098C33.0703 31.875 32.7188 31.5234 32.7188 31.084C32.7188 30.6445 33.0703 30.293 33.5098 30.293H38.6426C39.082 30.293 39.4336 30.6445 39.4336 31.084C39.4336 31.5234 39.0762 31.875 38.6426 31.875Z" fill="white"/>
<path d="M38.6426 40.1953H33.5098C33.0703 40.1953 32.7188 39.8438 32.7188 39.4043C32.7188 38.9648 33.0703 38.6133 33.5098 38.6133H38.6426C39.082 38.6133 39.4336 38.9648 39.4336 39.4043C39.4336 39.8438 39.0762 40.1953 38.6426 40.1953Z" fill="white"/>
<path d="M38.6426 48.5156H33.5098C33.0703 48.5156 32.7188 48.1641 32.7188 47.7246C32.7188 47.2852 33.0703 46.9336 33.5098 46.9336H38.6426C39.082 46.9336 39.4336 47.2852 39.4336 47.7246C39.4336 48.1641 39.0762 48.5156 38.6426 48.5156Z" fill="white"/>
<path d="M36.7734 9.67969H33.5098C33.0703 9.67969 32.7188 9.32812 32.7188 8.88867C32.7188 8.44922 33.0703 8.09766 33.5098 8.09766H36.7734C37.2129 8.09766 37.5645 8.44922 37.5645 8.88867C37.5645 9.32812 37.2129 9.67969 36.7734 9.67969Z" fill="white"/>
<path d="M36.7734 20.7773H33.5098C33.0703 20.7773 32.7188 20.4258 32.7188 19.9863C32.7188 19.5469 33.0703 19.1953 33.5098 19.1953H36.7734C37.2129 19.1953 37.5645 19.5469 37.5645 19.9863C37.5645 20.4258 37.2129 20.7773 36.7734 20.7773Z" fill="white"/>
<path d="M36.7734 26.3262H33.5098C33.0703 26.3262 32.7188 25.9746 32.7188 25.5352C32.7188 25.0957 33.0703 24.7441 33.5098 24.7441H36.7734C37.2129 24.7441 37.5645 25.0957 37.5645 25.5352C37.5645 25.9688 37.2129 26.3262 36.7734 26.3262Z" fill="white"/>
<path d="M36.7734 29.0977H33.5098C33.0703 29.0977 32.7188 28.7461 32.7188 28.3066C32.7188 27.8672 33.0703 27.5156 33.5098 27.5156H36.7734C37.2129 27.5156 37.5645 27.8672 37.5645 28.3066C37.5645 28.7461 37.2129 29.0977 36.7734 29.0977Z" fill="white"/>
<path d="M36.7734 34.6465H33.5098C33.0703 34.6465 32.7188 34.2949 32.7188 33.8555C32.7188 33.416 33.0703 33.0645 33.5098 33.0645H36.7734C37.2129 33.0645 37.5645 33.416 37.5645 33.8555C37.5645 34.2949 37.2129 34.6465 36.7734 34.6465Z" fill="white"/>
<path d="M36.7734 37.418H33.5098C33.0703 37.418 32.7188 37.0664 32.7188 36.627C32.7188 36.1875 33.0703 35.8359 33.5098 35.8359H36.7734C37.2129 35.8359 37.5645 36.1875 37.5645 36.627C37.5645 37.0664 37.2129 37.418 36.7734 37.418Z" fill="white"/>
<path d="M36.7734 42.9668H33.5098C33.0703 42.9668 32.7188 42.6152 32.7188 42.1758C32.7188 41.7363 33.0703 41.3848 33.5098 41.3848H36.7734C37.2129 41.3848 37.5645 41.7363 37.5645 42.1758C37.5645 42.6152 37.2129 42.9668 36.7734 42.9668Z" fill="white"/>
<path d="M36.7734 45.7383H33.5098C33.0703 45.7383 32.7188 45.3867 32.7188 44.9473C32.7188 44.5078 33.0703 44.1562 33.5098 44.1562H36.7734C37.2129 44.1562 37.5645 44.5078 37.5645 44.9473C37.5645 45.3867 37.2129 45.7383 36.7734 45.7383Z" fill="white"/>
<path d="M36.7734 51.2871H33.5098C33.0703 51.2871 32.7188 50.9355 32.7188 50.4961C32.7188 50.0566 33.0703 49.7051 33.5098 49.7051H36.7734C37.2129 49.7051 37.5645 50.0566 37.5645 50.4961C37.5645 50.9355 37.2129 51.2871 36.7734 51.2871Z" fill="white"/>
<path d="M36.7734 54.0645H33.5098C33.0703 54.0645 32.7188 53.7129 32.7188 53.2734C32.7188 52.834 33.0703 52.4824 33.5098 52.4824H36.7734C37.2129 52.4824 37.5645 52.834 37.5645 53.2734C37.5645 53.707 37.2129 54.0645 36.7734 54.0645Z" fill="white"/>
<path d="M36.7734 12.457H33.5098C33.0703 12.457 32.7188 12.1055 32.7188 11.666C32.7188 11.2266 33.0703 10.875 33.5098 10.875H36.7734C37.2129 10.875 37.5645 11.2266 37.5645 11.666C37.5645 12.0996 37.2129 12.457 36.7734 12.457Z" fill="white"/>
<path d="M36.7734 18.0059H33.5098C33.0703 18.0059 32.7188 17.6543 32.7188 17.2148C32.7188 16.7754 33.0703 16.4238 33.5098 16.4238H36.7734C37.2129 16.4238 37.5645 16.7754 37.5645 17.2148C37.5645 17.6484 37.2129 18.0059 36.7734 18.0059Z" fill="white"/>
</svg>
