<svg xmlns="http://www.w3.org/2000/svg" width="48" height="48" fill="none"><g clip-path="url(#a)"><path fill="#fff" d="M24 0C10.744 0 0 10.744 0 24s10.744 24 24 24 24-10.744 24-24S37.256 0 24 0Zm14.981 38.972a20.957 20.957 0 0 1-6.731 4.537A20.987 20.987 0 0 1 24 45.17c-2.86 0-5.634-.563-8.25-1.66a21.16 21.16 0 0 1-6.731-4.537A20.957 20.957 0 0 1 4.48 32.24 20.983 20.983 0 0 1 2.813 24c0-2.86.562-5.634 1.659-8.25A21.28 21.28 0 0 1 15.75 4.472 21.223 21.223 0 0 1 24 2.812c2.86 0 5.634.563 8.25 1.66a21.159 21.159 0 0 1 6.731 4.537 20.958 20.958 0 0 1 4.538 6.732 20.988 20.988 0 0 1 1.66 8.25c0 2.859-.563 5.634-1.66 8.25a21.16 21.16 0 0 1-4.538 6.73Z"/></g><path fill="#fff" fill-rule="evenodd" d="m30.451 21.961-.471 3.408h-5.66v11.927h-3.44V25.37h-5.16v-3.408h5.16v-3.123c0-4.333 2.686-7.134 6.847-7.134 1.782 0 2.893.094 3.534.179l-.05 3.227-2.645.005c-.072-.007-1.796-.14-3.04.992-.8.727-1.206 1.773-1.206 3.106v2.748h6.131Zm-3.77-4.592c.678-.625 1.734-.557 1.811-.553l4.413-.002.095-6.306-.664-.162c-.426-.104-1.732-.346-4.61-.346-5.123 0-8.566 3.553-8.566 8.838v1.42H14v6.815h5.16V39h6.88V27.073h5.438l.944-6.816H26.04v-1.044c0-.83.216-1.45.641-1.844Z" clip-rule="evenodd"/><defs><clipPath id="a"><path fill="#fff" d="M0 0h48v48H0z"/></clipPath></defs></svg>