<svg width="58" height="40" viewBox="0 0 58 40" fill="none" xmlns="http://www.w3.org/2000/svg">
<path d="M41.9907 10.1378L42.4476 10.3342C42.6408 10.4173 42.8416 10.4566 43.0394 10.4566C43.6207 10.4566 44.1739 10.1166 44.4181 9.54875C44.7454 8.78773 44.3937 7.90543 43.6327 7.57828L43.1758 7.38178C42.4147 7.05455 41.5325 7.40623 41.2053 8.16725C40.878 8.92835 41.2297 9.81058 41.9907 10.1378Z" fill="#fff"/>
<path d="M55.1701 22.1639V13.5264C55.1701 12.6979 54.4986 12.0264 53.6701 12.0264H27.9642C27.1357 12.0264 26.4642 12.6979 26.4642 13.5264C26.4642 14.3548 27.1357 15.0264 27.9642 15.0264H46.3831L27.9642 22.9451L6.05623 13.5264L27.9642 4.10765L37.7979 8.33532C38.559 8.66247 39.4411 8.3108 39.7684 7.5497C40.0954 6.78867 39.7438 5.90637 38.9827 5.57922L28.5566 1.09677C28.1784 0.934173 27.7499 0.934173 27.3717 1.09677L1.66588 12.1483C1.11523 12.3851 0.758301 12.927 0.758301 13.5264C0.758301 14.1258 1.11523 14.6677 1.66588 14.9044L27.3718 25.9558C27.5608 26.0371 27.7626 26.0778 27.9642 26.0778C28.1658 26.0778 28.3675 26.0371 28.5566 25.9558L42.7046 19.8732L42.7049 30.2529C34.4489 37.8913 21.4792 37.8913 13.2235 30.2528L13.2235 27.6052C13.2235 26.7767 12.552 26.1051 11.7235 26.1051C10.8952 26.1051 10.2235 26.7767 10.2235 27.605L10.2235 30.8955C10.2235 31.2985 10.3857 31.6846 10.6735 31.9667C15.3177 36.5184 21.4582 39.0251 27.9641 39.0251C34.4701 39.0251 40.6107 36.5184 45.2548 31.9668C45.5426 31.6847 45.7049 31.2986 45.7049 30.8955L45.7046 18.5836L52.17 15.8039V22.1638C50.948 22.7317 50.0983 23.9703 50.0983 25.4041C50.0983 26.8756 51.1965 30.7471 53.67 30.7471C56.1434 30.7471 57.2416 26.8756 57.2416 25.4041C57.2416 23.9703 56.392 22.7319 55.1701 22.1639ZM53.6701 27.3415C53.3787 26.769 53.0983 25.8845 53.0983 25.4042C53.0983 25.089 53.3548 24.8325 53.6701 24.8325C53.9853 24.8325 54.2416 25.089 54.2416 25.4042C54.2416 25.8845 53.9612 26.769 53.6701 27.3415Z" fill="#fff"/>
<path d="M11.7236 24.5428C12.5521 24.5428 13.2236 23.8713 13.2236 23.0428V22.5437C13.2236 21.7153 12.5521 21.0437 11.7236 21.0437C10.8952 21.0437 10.2236 21.7153 10.2236 22.5437V23.0428C10.2236 23.8713 10.8952 24.5428 11.7236 24.5428Z" fill="#fff"/>
</svg>
