<svg width="64" height="60" viewBox="0 0 64 60" fill="none" xmlns="http://www.w3.org/2000/svg">
<path fill-rule="evenodd" clip-rule="evenodd" d="M10.9032 12.4998C9.4585 12.4998 8.28734 13.6191 8.28734 14.9998C8.28734 16.3805 9.4585 17.4998 10.9032 17.4998H52.7566C54.2013 17.4998 55.3725 16.3805 55.3725 14.9998C55.3725 13.6191 54.2013 12.4998 52.7566 12.4998H10.9032ZM8.28734 29.9998C8.28734 28.619 9.4585 27.4998 10.9032 27.4998H52.7566C54.2013 27.4998 55.3725 28.619 55.3725 29.9998C55.3725 31.3805 54.2013 32.4998 52.7566 32.4998H10.9032C9.4585 32.4998 8.28734 31.3805 8.28734 29.9998ZM8.28734 44.9998C8.28734 43.619 9.4585 42.4998 10.9032 42.4998H52.7566C54.2013 42.4998 55.3725 43.619 55.3725 44.9998C55.3725 46.3805 54.2013 47.4998 52.7566 47.4998H10.9032C9.4585 47.4998 8.28734 46.3805 8.28734 44.9998Z" fill="#F2C451"/>
</svg>
