<svg width="60" height="60" viewBox="0 0 60 60" fill="none" xmlns="http://www.w3.org/2000/svg">
<g clip-path="url(#clip0_502_2)">
<path d="M55.7812 18.6617H4.3125C2.71875 22.1305 1.875 25.9742 1.875 30.0055C1.875 34.0367 2.71875 37.8805 4.3125 41.3492H55.6875C57.2813 37.8805 58.125 34.0367 58.125 30.0055C58.125 25.9742 57.2813 22.1305 55.7812 18.6617Z" fill="#fff"/>
<path d="M60 30.0055C60 13.4117 46.5938 0.00549316 30 0.00549316C13.4062 0.00549316 0 13.4117 0 30.0055C0 44.6305 10.5 56.818 24.375 59.443L24.3769 59.4449C25.1606 59.5949 26.28 59.7833 27.4837 59.8967C28.1494 59.9502 28.8197 59.9821 29.4919 59.9942C29.5819 59.9942 29.6719 59.9952 29.7609 59.9933C32.0334 59.9474 35.0016 59.4514 35.9344 59.2864C49.6547 56.6305 60 44.5208 60 30.0055ZM54.8438 16.7867H50.25C47.4375 10.693 43.3125 6.38049 40.0313 3.75549C46.4063 6.19299 51.6562 10.8805 54.8438 16.7867ZM34.7812 2.25549C35.625 2.72424 43.6875 7.50549 48.1875 16.7867H37.5937C35.9062 9.75549 33.375 4.41174 32.0625 1.97424C33 2.06799 33.9375 2.16174 34.7812 2.25549ZM35.7187 16.7867H24.375C26.25 9.19299 29.0625 3.75549 30 2.06799C30.9375 3.75549 33.75 9.19299 35.7187 16.7867ZM27.9375 1.97424C26.625 4.41174 24.0937 9.75549 22.4062 16.7867H11.8125C16.3125 7.50549 24.4687 2.72424 25.2187 2.25549C26.0625 2.16174 27 2.06799 27.9375 1.97424ZM19.9687 3.75549C16.7812 6.38049 12.5625 10.693 9.84375 16.7867H5.15625C8.34375 10.8805 13.5937 6.19299 19.9687 3.75549ZM1.875 30.0055C1.875 25.9742 2.71875 22.1305 4.3125 18.6617H55.7812C57.2813 22.1305 58.125 25.9742 58.125 30.0055C58.125 34.0367 57.2813 37.8805 55.6875 41.3492H4.3125C2.71875 37.8805 1.875 34.0367 1.875 30.0055ZM5.15625 43.2242H9.65625C12.375 49.2242 16.4062 53.5367 19.6875 56.1617C13.5 53.7242 8.34375 49.0367 5.15625 43.2242ZM24.9375 57.6617C23.25 56.6305 15.9375 51.943 11.7188 43.2242H22.0312C23.1563 48.0992 25.0312 53.068 27.9375 58.0367C27 57.943 25.9688 57.8492 24.9375 57.6617ZM24 43.2242H36C34.875 48.0055 32.9062 52.8805 30 57.7555C27.0938 52.7867 25.125 47.9117 24 43.2242ZM31.9687 58.0367C34.875 53.068 36.75 48.0055 37.875 43.2242H48.1875C44.0625 51.943 36.6563 56.7242 35.0625 57.6617C34.0313 57.8492 33 57.943 31.9687 58.0367ZM40.3125 56.1617C43.5 53.443 47.625 49.2242 50.3438 43.2242H54.8438C51.6562 49.0367 46.5 53.7242 40.3125 56.1617Z" fill="#fff"/>
<path d="M6.1875 29.7186C6.1875 28.5936 6.375 27.6561 6.65625 26.8124C6.9375 26.2499 7.3125 25.7811 7.6875 25.3124C8.15625 24.8436 8.625 24.5624 9.09375 24.2811C9.75 23.9999 10.5938 23.8124 11.5313 23.8124C13.2188 23.8124 14.5312 24.2811 15.4687 25.3124C16.5 26.3436 16.9688 27.7499 16.9688 29.5311C16.9688 31.3124 16.5 32.7186 15.4687 33.7499C14.5312 34.7811 13.2188 35.2499 11.5313 35.2499C9.84375 35.2499 8.53125 34.7811 7.59375 33.7499C6.65625 32.7186 6.1875 31.4999 6.1875 29.7186ZM8.53125 29.6249C8.53125 30.9374 8.8125 31.8749 9.375 32.5311C9.9375 33.1874 10.6875 33.4686 11.625 33.4686C12.5625 33.4686 13.2188 33.1874 13.875 32.5311C14.4375 31.8749 14.7188 30.9374 14.7188 29.6249C14.7188 28.3124 14.4375 27.3749 13.875 26.7186C13.3125 26.0624 12.5625 25.7811 11.625 25.7811C10.6875 25.7811 9.9375 26.0624 9.375 26.7186C8.8125 27.3749 8.53125 28.3124 8.53125 29.6249ZM26.1562 35.2499H24V31.1249C24 30.2811 24 29.7186 23.9062 29.4374C23.8125 29.1561 23.625 28.9686 23.4375 28.8749C23.25 28.6874 22.9688 28.6874 22.6875 28.6874C22.3125 28.6874 21.9375 28.7811 21.6562 28.9686C21.375 29.1561 21.1875 29.4374 21.0937 29.8124C21 30.1874 20.9062 30.7499 20.9062 31.6874V35.3436H18.75V27.2811H20.7188V28.4999C21.4688 27.5624 22.3125 27.0936 23.3437 27.0936C23.8125 27.0936 24.2812 27.1874 24.6562 27.3749C25.0312 27.5624 25.3125 27.7499 25.5 28.0311C25.6875 28.3124 25.875 28.5936 25.875 28.9686C25.9688 29.3436 25.9688 29.8124 25.9688 30.3749L26.1562 35.2499ZM28.3125 35.2499V23.9999H30.4687V35.1561H28.3125V35.2499ZM32.625 26.0624V24.0936H34.7812V26.0624H32.625ZM32.625 35.2499V27.1874H34.7812V35.2499H32.625ZM44.3438 35.2499H42.1875V31.1249C42.1875 30.2811 42.1875 29.7186 42.0938 29.4374C42 29.1561 41.8125 28.9686 41.625 28.8749C41.4375 28.6874 41.1563 28.6874 40.875 28.6874C40.5 28.6874 40.125 28.7811 39.8438 28.9686C39.5625 29.1561 39.375 29.4374 39.2813 29.8124C39.1875 30.1874 39.0938 30.7499 39.0938 31.6874V35.3436H36.9375V27.2811H38.9063V28.4999C39.6563 27.5624 40.5 27.0936 41.5313 27.0936C42 27.0936 42.4688 27.1874 42.8438 27.3749C43.2188 27.5624 43.5 27.7499 43.6875 28.0311C43.875 28.3124 44.0625 28.5936 44.0625 28.9686C44.1563 29.3436 44.1562 29.8124 44.1562 30.3749L44.3438 35.2499ZM51.1875 32.6249L53.3438 32.9999C53.0625 33.7499 52.5938 34.4061 52.0313 34.7811C51.4688 35.1561 50.7188 35.4374 49.7812 35.4374C48.375 35.4374 47.3438 34.9686 46.6875 34.0311C46.125 33.2811 45.8438 32.3436 45.8438 31.2186C45.8438 29.9061 46.2188 28.7811 46.875 28.0311C47.5313 27.2811 48.4688 26.9061 49.5 26.9061C50.7188 26.9061 51.6563 27.2811 52.3125 28.1249C52.9688 28.8749 53.3438 30.0936 53.3438 31.7811H48C48 32.4374 48.1875 32.9061 48.5625 33.2811C48.9375 33.6561 49.3125 33.8436 49.7812 33.8436C50.1563 33.8436 50.4375 33.7499 50.625 33.5624C50.8125 33.3749 51.0937 33.0936 51.1875 32.6249ZM51.375 30.4686C51.375 29.8124 51.1875 29.3436 50.9063 29.0624C50.625 28.7811 50.25 28.5936 49.7812 28.5936C49.3125 28.5936 48.9375 28.7811 48.6563 29.0624C48.375 29.4374 48.1875 29.9061 48.1875 30.4686H51.375Z" fill="#175c91"/>
</g>
<defs>
<clipPath id="clip0_502_2">
<rect width="60" height="60" fill="white"/>
</clipPath>
</defs>
</svg>
